<svg xmlns="http://www.w3.org/2000/svg" viewBox="0 0 120 120" width="120" height="120">
  <!-- Drop shadow -->
  <g transform="translate(0, 3)" opacity="0.4">
    <rect x="44" y="8" width="32" height="4" fill="#1a1000"/>
    <rect x="36" y="12" width="48" height="4" fill="#1a1000"/>
    <rect x="28" y="16" width="64" height="4" fill="#1a1000"/>
    <rect x="24" y="20" width="72" height="4" fill="#1a1000"/>
    <rect x="20" y="24" width="80" height="4" fill="#1a1000"/>
    <rect x="16" y="28" width="88" height="4" fill="#1a1000"/>
    <rect x="12" y="32" width="96" height="4" fill="#1a1000"/>
    <rect x="12" y="36" width="96" height="4" fill="#1a1000"/>
    <rect x="8" y="40" width="104" height="4" fill="#1a1000"/>
    <rect x="8" y="44" width="104" height="4" fill="#1a1000"/>
    <rect x="8" y="48" width="104" height="4" fill="#1a1000"/>
    <rect x="8" y="52" width="104" height="4" fill="#1a1000"/>
    <rect x="8" y="56" width="104" height="4" fill="#1a1000"/>
    <rect x="8" y="60" width="104" height="4" fill="#1a1000"/>
    <rect x="12" y="64" width="96" height="4" fill="#1a1000"/>
    <rect x="12" y="68" width="96" height="4" fill="#1a1000"/>
    <rect x="16" y="72" width="88" height="4" fill="#1a1000"/>
    <rect x="20" y="76" width="80" height="4" fill="#1a1000"/>
    <rect x="24" y="80" width="72" height="4" fill="#1a1000"/>
    <rect x="28" y="84" width="64" height="4" fill="#1a1000"/>
    <rect x="36" y="88" width="48" height="4" fill="#1a1000"/>
    <rect x="44" y="92" width="32" height="4" fill="#1a1000"/>
  </g>

  <!-- Dark outer rim -->
  <rect x="44" y="8" width="32" height="4" fill="#7A5A00"/>
  <rect x="36" y="12" width="48" height="4" fill="#7A5A00"/>
  <rect x="28" y="16" width="64" height="4" fill="#7A5A00"/>
  <rect x="24" y="20" width="72" height="4" fill="#7A5A00"/>
  <rect x="20" y="24" width="80" height="4" fill="#7A5A00"/>
  <rect x="16" y="28" width="88" height="4" fill="#7A5A00"/>
  <rect x="12" y="32" width="96" height="4" fill="#7A5A00"/>
  <rect x="12" y="36" width="96" height="4" fill="#7A5A00"/>
  <rect x="8" y="40" width="104" height="4" fill="#7A5A00"/>
  <rect x="8" y="44" width="104" height="4" fill="#7A5A00"/>
  <rect x="8" y="48" width="104" height="4" fill="#7A5A00"/>
  <rect x="8" y="52" width="104" height="4" fill="#7A5A00"/>
  <rect x="8" y="56" width="104" height="4" fill="#7A5A00"/>
  <rect x="8" y="60" width="104" height="4" fill="#7A5A00"/>
  <rect x="12" y="64" width="96" height="4" fill="#7A5A00"/>
  <rect x="12" y="68" width="96" height="4" fill="#7A5A00"/>
  <rect x="16" y="72" width="88" height="4" fill="#7A5A00"/>
  <rect x="20" y="76" width="80" height="4" fill="#7A5A00"/>
  <rect x="24" y="80" width="72" height="4" fill="#7A5A00"/>
  <rect x="28" y="84" width="64" height="4" fill="#7A5A00"/>
  <rect x="36" y="88" width="48" height="4" fill="#7A5A00"/>
  <rect x="44" y="92" width="32" height="4" fill="#7A5A00"/>

  <!-- Inner gold face -->
  <rect x="48" y="12" width="24" height="4" fill="#FFCC00"/>
  <rect x="40" y="16" width="40" height="4" fill="#FFCC00"/>
  <rect x="32" y="20" width="56" height="4" fill="#FFCC00"/>
  <rect x="28" y="24" width="64" height="4" fill="#FFCC00"/>
  <rect x="24" y="28" width="72" height="4" fill="#FFCC00"/>
  <rect x="20" y="32" width="80" height="4" fill="#FFCC00"/>
  <rect x="16" y="36" width="88" height="4" fill="#FFCC00"/>
  <rect x="16" y="40" width="88" height="4" fill="#FFCC00"/>
  <rect x="12" y="44" width="96" height="4" fill="#FFCC00"/>
  <rect x="12" y="48" width="96" height="4" fill="#FFCC00"/>
  <rect x="12" y="52" width="96" height="4" fill="#FFCC00"/>
  <rect x="12" y="56" width="96" height="4" fill="#FFCC00"/>
  <rect x="16" y="60" width="88" height="4" fill="#FFCC00"/>
  <rect x="16" y="64" width="88" height="4" fill="#FFCC00"/>
  <rect x="20" y="68" width="80" height="4" fill="#FFCC00"/>
  <rect x="24" y="72" width="72" height="4" fill="#FFCC00"/>
  <rect x="28" y="76" width="64" height="4" fill="#FFCC00"/>
  <rect x="32" y="80" width="56" height="4" fill="#FFCC00"/>
  <rect x="40" y="84" width="40" height="4" fill="#FFCC00"/>
  <rect x="48" y="88" width="24" height="4" fill="#FFCC00"/>

  <!-- Top-left highlight shine -->
  <rect x="48" y="12" width="20" height="4" fill="#FFE566" opacity="0.9"/>
  <rect x="40" y="16" width="24" height="4" fill="#FFE566" opacity="0.8"/>
  <rect x="32" y="20" width="24" height="4" fill="#FFE566" opacity="0.7"/>
  <rect x="28" y="24" width="20" height="4" fill="#FFE566" opacity="0.6"/>
  <rect x="24" y="28" width="16" height="4" fill="#FFE566" opacity="0.5"/>
  <rect x="20" y="32" width="16" height="4" fill="#FFE566" opacity="0.4"/>
  <rect x="16" y="36" width="12" height="4" fill="#FFE566" opacity="0.3"/>

  <!-- Bottom-right darker shade -->
  <rect x="80" y="64" width="24" height="4" fill="#B8860B" opacity="0.6"/>
  <rect x="76" y="68" width="24" height="4" fill="#B8860B" opacity="0.6"/>
  <rect x="72" y="72" width="24" height="4" fill="#B8860B" opacity="0.7"/>
  <rect x="64" y="76" width="28" height="4" fill="#B8860B" opacity="0.7"/>
  <rect x="56" y="80" width="32" height="4" fill="#B8860B" opacity="0.7"/>
  <rect x="56" y="84" width="24" height="4" fill="#B8860B" opacity="0.8"/>

  <!-- ===== PIXEL "C" LETTER ===== -->
  <!-- Top bar -->
  <rect x="52" y="32" width="24" height="4" fill="#2D1800"/>
  <rect x="48" y="36" width="32" height="4" fill="#2D1800"/>
  <!-- Top-right hook -->
  <rect x="72" y="36" width="8" height="4" fill="#2D1800"/>
  <!-- Left column -->
  <rect x="44" y="40" width="12" height="4" fill="#2D1800"/>
  <rect x="40" y="44" width="12" height="4" fill="#2D1800"/>
  <rect x="40" y="48" width="8" height="4" fill="#2D1800"/>
  <rect x="40" y="52" width="8" height="4" fill="#2D1800"/>
  <rect x="40" y="56" width="12" height="4" fill="#2D1800"/>
  <rect x="44" y="60" width="12" height="4" fill="#2D1800"/>
  <!-- Bottom-right hook -->
  <rect x="72" y="60" width="8" height="4" fill="#2D1800"/>
  <!-- Bottom bar -->
  <rect x="48" y="64" width="32" height="4" fill="#2D1800"/>
  <rect x="52" y="68" width="24" height="4" fill="#2D1800"/>

  <!-- C inner highlight (subtle pixel bevel) -->
  <rect x="52" y="32" width="20" height="4" fill="#3D2500" opacity="0.6"/>
  <rect x="48" y="36" width="4" height="4" fill="#FFDD44" opacity="0.25"/>
  <rect x="44" y="40" width="4" height="4" fill="#FFDD44" opacity="0.2"/>
  <rect x="40" y="44" width="4" height="4" fill="#FFDD44" opacity="0.15"/>

  <!-- ===== PIXEL STAR (top center) ===== -->
  <rect x="58" y="20" width="4" height="4" fill="#FFF5CC"/>
  <rect x="54" y="24" width="4" height="4" fill="#FFF5CC"/>
  <rect x="62" y="24" width="4" height="4" fill="#FFF5CC"/>
  <rect x="58" y="24" width="4" height="4" fill="#FFFFFF"/>
  <rect x="58" y="28" width="4" height="4" fill="#FFF5CC"/>

  <!-- ===== SMALL SPARKLES ===== -->
  <rect x="84" y="44" width="4" height="4" fill="#FFFFFF" opacity="0.4"/>
  <rect x="24" y="72" width="4" height="4" fill="#FFFFFF" opacity="0.25"/>
</svg>
